<svg width="18" height="18" viewBox="0 0 18 18" fill="none" xmlns="http://www.w3.org/2000/svg">
<g clip-path="url(#clip0)">
<path d="M17.8103 0.429285C17.6371 0.387689 17.4835 0.315371 17.3642 0.245772C17.2021 0.151161 16.9985 0.181883 16.8612 0.309934C16.3767 0.761239 15.7884 1.05839 15.358 1.23647C15.1625 1.31749 15.0424 1.52411 15.0872 1.73073C15.1587 2.06024 14.8948 2.34488 14.8007 2.43406L14.7664 2.4656L6.58041 10.0443C6.50755 10.1122 6.29685 10.2797 6.0731 10.0559C5.7909 9.77375 5.74033 8.8657 7.02084 7.58492C7.02084 7.56806 7.36503 7.36497 7.14509 7.14476C6.92514 6.92481 6.2819 7.24073 5.84745 7.67518C4.56694 8.95596 4.57591 9.87896 3.91798 10.5187C3.11134 11.3027 1.6669 11.1674 0.65717 12.1774C0.65717 12.1774 -1.22173 13.8113 1.37328 16.4063C3.32177 18.3548 4.46526 17.9638 5.33769 17.0911C6.48879 15.94 5.94614 14.8373 6.31262 14.4709C6.92949 13.8537 7.57872 13.9915 8.20375 13.2173C8.54984 12.7885 8.23937 12.3881 7.93052 12.6969C7.67523 12.9522 7.00018 13.2773 6.63914 12.9163C6.33845 12.6156 6.44556 12.2211 7.16493 11.4221L15.3469 3.24015C15.6883 2.89868 16.0266 2.78613 16.274 2.75731C16.4988 2.73094 16.6837 2.58386 16.7709 2.37479C17.0034 1.81854 17.5262 1.24354 17.9212 0.861287C18.0642 0.723177 18.0036 0.475503 17.8103 0.429285ZM4.31573 15.4262C4.15614 15.5858 3.89705 15.5858 3.73746 15.4262L2.20411 13.8929C2.04452 13.7333 2.04452 13.4742 2.20411 13.3146C2.3637 13.155 2.62279 13.155 2.78238 13.3146L4.31573 14.8479C4.47559 15.0075 4.47559 15.2666 4.31573 15.4262Z" fill="white"/>
</g>
<defs>
<clipPath id="clip0">
<rect width="18" height="18" fill="white"/>
</clipPath>
</defs>
</svg>
