<svg width="38" height="38" viewBox="0 0 38 38" fill="none" xmlns="http://www.w3.org/2000/svg">
<path d="M13.0625 8.3125C14.0073 8.3125 14.9135 8.68783 15.5816 9.35593C16.2497 10.024 16.625 10.9302 16.625 11.875V26.125C16.625 27.0698 16.2497 27.976 15.5816 28.6441C14.9135 29.3122 14.0073 29.6875 13.0625 29.6875C12.1177 29.6875 11.2115 29.3122 10.5434 28.6441C9.87533 27.976 9.5 27.0698 9.5 26.125V11.875C9.5 10.9302 9.87533 10.024 10.5434 9.35593C11.2115 8.68783 12.1177 8.3125 13.0625 8.3125V8.3125ZM24.9375 8.3125C25.8823 8.3125 26.7885 8.68783 27.4566 9.35593C28.1247 10.024 28.5 10.9302 28.5 11.875V26.125C28.5 27.0698 28.1247 27.976 27.4566 28.6441C26.7885 29.3122 25.8823 29.6875 24.9375 29.6875C23.9927 29.6875 23.0865 29.3122 22.4184 28.6441C21.7503 27.976 21.375 27.0698 21.375 26.125V11.875C21.375 10.9302 21.7503 10.024 22.4184 9.35593C23.0865 8.68783 23.9927 8.3125 24.9375 8.3125Z" fill="#70709F"/>
</svg>
