<svg width="20" height="20" viewBox="0 0 20 20" fill="none" xmlns="http://www.w3.org/2000/svg">
<g clip-path="url(#clip0)">
<path d="M19.4863 3.00171L16.9991 0.514374C16.6675 0.182953 16.2259 0.000152588 15.7558 0C15.7555 0 15.7554 0 15.7551 0C15.2849 0 14.8437 0.182495 14.5124 0.513763L1.83081 13.1952C1.72689 13.3015 1.68417 13.4529 1.65335 13.5477L0.0234024 19.2526C-0.0350388 19.4574 0.0220291 19.6777 0.172481 19.8282C0.284022 19.9397 0.433864 20 0.587062 20C0.640925 20 0.695094 19.9927 0.748195 19.9774L6.44995 18.3484C6.46688 18.3435 6.71881 18.2568 6.80563 18.17L19.4871 5.48843C19.8186 5.15701 20.001 4.71542 20.0008 4.245C20.0007 3.77487 19.8179 3.33328 19.4863 3.00171V3.00171ZM1.44079 18.56L2.53546 14.7289L5.27197 17.4654L1.44079 18.56ZM6.39105 16.9263L3.07455 13.6098L13.268 3.41629L16.5845 6.73279L6.39105 16.9263ZM18.6579 4.65942L17.4137 5.90378L14.097 2.58713L15.3414 1.34293C15.4513 1.23306 15.5982 1.17264 15.7551 1.17264H15.7554C15.9125 1.17264 16.0598 1.23337 16.1699 1.34354L18.6573 3.83087C18.8859 4.05945 18.8862 4.43115 18.6579 4.65942Z" fill="#1E1E36"/>
</g>
<defs>
<clipPath id="clip0">
<rect width="20" height="20" fill="white"/>
</clipPath>
</defs>
</svg>
