<svg width="16" height="16" viewBox="0 0 16 16" fill="none" xmlns="http://www.w3.org/2000/svg">
<path d="M10.7057 0C12.0665 0 13.1693 1.10303 13.1693 2.4636C13.1693 3.82414 12.0665 4.92706 10.7057 4.92706C9.34538 4.92706 8.24231 3.82414 8.24231 2.4636C8.24227 1.10303 9.34534 0 10.7057 0Z" fill="white"/>
<path d="M5.37418 9.27914C5.57966 9.27914 5.762 9.18651 5.88719 9.04287L10.0338 5.22452C9.21082 5.02482 8.52748 4.46627 8.15933 3.72433L4.88345 8.08499C4.76271 8.25359 4.69116 8.40059 4.69116 8.5958C4.69116 8.97299 4.99731 9.27914 5.37418 9.27914Z" fill="white"/>
<path d="M3.38104 12.9495C4.75905 14.0083 6.87736 12.0027 6.9565 11.9261C6.97925 11.9063 9.21356 9.9391 10.2552 11.1042C10.4726 11.3466 10.5635 11.6272 10.5347 11.9619C10.4251 13.2028 8.70174 14.8112 8.04665 15.3261C7.88312 15.4548 7.85473 15.6921 7.98335 15.8558C8.05772 15.9506 8.1679 16 8.27995 16C8.36098 16 8.44359 15.9734 8.5117 15.9198C8.61884 15.8358 11.125 13.85 11.2854 12.0287C11.3336 11.4823 11.1761 11.0022 10.8174 10.6012C10.3583 10.0877 9.49016 9.62904 7.9674 10.3601C7.13374 10.7595 6.48179 11.3392 6.44446 11.3724C5.99649 11.8011 4.55624 12.9009 3.84009 12.3509C3.68419 12.2312 3.60411 12.0864 3.58729 11.8954C3.5309 11.2357 4.22827 10.2859 4.57519 9.8885L5.34787 9.61906C5.34787 9.61906 5.19313 9.60181 4.82878 9.27522C4.48809 8.96907 4.3977 8.63803 4.3977 8.63803L4.04995 9.34452C3.80229 9.62065 2.74429 10.8707 2.83635 11.9589C2.87009 12.3594 3.05836 12.7021 3.38104 12.9495Z" fill="white"/>
</svg>
