<svg width="18" height="18" viewBox="0 0 18 18" fill="none" xmlns="http://www.w3.org/2000/svg">
<g clip-path="url(#clip0)">
<path fill-rule="evenodd" clip-rule="evenodd" d="M17.583 15.5951L10.7367 8.97202L16.3589 3.1603C16.735 3.08862 17.1004 2.88911 17.4001 2.58947C18.0853 1.90417 18.1968 0.900635 17.6486 0.352408C17.3733 0.0771348 16.9665 -0.045209 16.5318 0.0169121C16.1284 0.0745332 15.7305 0.281955 15.4115 0.600963C15.1119 0.900599 14.9124 1.26601 14.8407 1.64212L9.00022 7.29218L3.15971 1.64212C3.08803 1.26601 2.88852 0.900635 2.58892 0.600963C2.26987 0.281955 1.87201 0.0745332 1.46859 0.0169121C1.03413 -0.0451738 0.627022 0.0771348 0.351784 0.352408C-0.196442 0.900635 -0.0849268 1.9042 0.600339 2.58947C0.899941 2.88907 1.26539 3.08862 1.64149 3.1603L7.26371 8.97202L0.417456 15.5951C0.151569 15.8523 0.00338571 16.2006 0.000291963 16.5758C-0.00283694 16.9533 0.147702 17.3221 0.413343 17.5877C0.676276 17.8506 1.04025 18.0008 1.41368 18.0008C1.41748 18.0008 1.42138 18.0008 1.42521 18.0007C1.80036 17.9976 2.14866 17.8495 2.40593 17.5835L9.00022 10.767L15.5946 17.5835C15.8518 17.8495 16.2001 17.9976 16.5753 18.0007C16.5791 18.0008 16.583 18.0008 16.5868 18.0008C16.9602 18.0008 17.3243 17.8506 17.5872 17.5877C17.8528 17.322 18.0034 16.9532 18.0002 16.5758C17.9971 16.2006 17.8489 15.8523 17.583 15.5951V15.5951ZM15.4148 2.06504C15.4737 2.00802 15.5108 1.93222 15.5198 1.85073C15.5483 1.5911 15.6901 1.31678 15.9087 1.09814C16.1177 0.889068 16.3811 0.748689 16.6313 0.712935C16.7566 0.695041 16.9908 0.688994 17.1514 0.849553C17.4208 1.11903 17.307 1.6881 16.9029 2.09226C16.6842 2.31089 16.4099 2.45264 16.1503 2.48115C16.0688 2.49012 15.993 2.52728 15.936 2.58617L10.2313 8.48313L9.50587 7.78138L15.4148 2.06504ZM1.85014 2.48119C1.59048 2.45268 1.31619 2.31093 1.09755 2.09229C0.693362 1.68813 0.579562 1.11903 0.848999 0.849588C0.965894 0.732693 1.12181 0.704111 1.24634 0.704111C1.29288 0.704111 1.33503 0.708084 1.36914 0.712971C1.61927 0.748725 1.88263 0.889103 2.0917 1.09814C2.31034 1.31681 2.45209 1.5911 2.4806 1.85073C2.48957 1.93222 2.52673 2.00802 2.58561 2.06504L9.57548 8.827L8.82645 9.57604L2.06446 2.5862C2.00743 2.52731 1.93167 2.49015 1.85014 2.48119V2.48119ZM1.90052 17.0947C1.77537 17.224 1.60451 17.2961 1.41934 17.2976C1.41741 17.2976 1.41547 17.2976 1.4135 17.2976C1.22535 17.2976 1.04229 17.2223 0.910452 17.0905C0.777245 16.9573 0.70173 16.7718 0.703312 16.5816C0.704858 16.3965 0.776929 16.2256 0.906269 16.1004L3.23076 13.8517L4.14915 14.7701L1.90052 17.0947ZM17.0899 17.0905C16.9581 17.2223 16.775 17.2977 16.5869 17.2977C16.5849 17.2977 16.583 17.2977 16.581 17.2976C16.3959 17.2961 16.225 17.224 16.0999 17.0947L13.8512 14.7702L14.7696 13.8518L17.0941 16.1005C17.2234 16.2256 17.2955 16.3965 17.297 16.5817C17.2986 16.7718 17.2231 16.9573 17.0899 17.0905V17.0905Z" fill="white"/>
</g>
<defs>
<clipPath id="clip0">
<rect width="18" height="18" fill="white"/>
</clipPath>
</defs>
</svg>
