<svg width="17" height="17" viewBox="0 0 17 17" fill="none" xmlns="http://www.w3.org/2000/svg">
<g clip-path="url(#clip0)">
<path d="M0.386376 10.8182C0.173103 10.8182 0 10.6451 0 10.4318V6.56817C0 6.3549 0.173103 6.18179 0.386376 6.18179C0.599649 6.18179 0.772752 6.3549 0.772752 6.56817V10.4318C0.772716 10.6451 0.599649 10.8182 0.386376 10.8182Z" fill="#F44336"/>
<path d="M2.70449 13.9091C2.49122 13.9091 2.31812 13.736 2.31812 13.5227V3.47729C2.31812 3.26401 2.49122 3.09091 2.70449 3.09091C2.91776 3.09091 3.09083 3.26401 3.09083 3.47729V13.5227C3.09083 13.736 2.91776 13.9091 2.70449 13.9091Z" fill="#F44336"/>
<path d="M5.02273 17C4.80946 17 4.63635 16.8269 4.63635 16.6136V0.38634C4.63635 0.173103 4.80946 0 5.02273 0C5.236 0 5.4091 0.173103 5.4091 0.386376V16.6137C5.40907 16.8269 5.236 17 5.02273 17Z" fill="#F44336"/>
<path d="M7.34097 16.2273C7.12769 16.2273 6.95459 16.0542 6.95459 15.8409V1.15908C6.95459 0.945808 7.12769 0.772705 7.34097 0.772705C7.55424 0.772705 7.72731 0.945808 7.72731 1.15908V15.8409C7.72731 16.0542 7.55424 16.2273 7.34097 16.2273Z" fill="#F44336"/>
<path d="M9.65908 13.1364C9.44581 13.1364 9.27271 12.9633 9.27271 12.75V4.24999C9.27271 4.03672 9.44581 3.86362 9.65908 3.86362C9.87235 3.86362 10.0455 4.03672 10.0455 4.24999V12.75C10.0454 12.9633 9.87235 13.1364 9.65908 13.1364Z" fill="#F44336"/>
<path d="M11.9773 16.2273C11.764 16.2273 11.5909 16.0542 11.5909 15.8409V1.15908C11.5909 0.945808 11.764 0.772705 11.9773 0.772705C12.1906 0.772705 12.3637 0.945808 12.3637 1.15908V15.8409C12.3637 16.0542 12.1906 16.2273 11.9773 16.2273Z" fill="#F44336"/>
<path d="M14.2954 13.1364C14.0822 13.1364 13.9091 12.9633 13.9091 12.75V4.24999C13.9091 4.03672 14.0822 3.86362 14.2954 3.86362C14.5087 3.86362 14.6818 4.03672 14.6818 4.24999V12.75C14.6818 12.9633 14.5087 13.1364 14.2954 13.1364Z" fill="#F44336"/>
<path d="M16.6137 10.8182C16.4004 10.8182 16.2273 10.6451 16.2273 10.4318V6.56817C16.2273 6.3549 16.4004 6.18179 16.6137 6.18179C16.8269 6.18179 17 6.3549 17 6.56817V10.4318C17 10.6451 16.8269 10.8182 16.6137 10.8182Z" fill="#F44336"/>
<path d="M0.386376 10.8182C0.173103 10.8182 0 10.6451 0 10.4318V6.56817C0 6.3549 0.173103 6.18179 0.386376 6.18179C0.599649 6.18179 0.772752 6.3549 0.772752 6.56817V10.4318C0.772716 10.6451 0.599649 10.8182 0.386376 10.8182Z" fill="white"/>
<path d="M2.70449 13.9091C2.49122 13.9091 2.31812 13.736 2.31812 13.5227V3.47729C2.31812 3.26401 2.49122 3.09091 2.70449 3.09091C2.91776 3.09091 3.09083 3.26401 3.09083 3.47729V13.5227C3.09083 13.736 2.91776 13.9091 2.70449 13.9091Z" fill="white"/>
<path d="M5.02273 17C4.80946 17 4.63635 16.8269 4.63635 16.6136V0.38634C4.63635 0.173103 4.80946 0 5.02273 0C5.236 0 5.4091 0.173103 5.4091 0.386376V16.6137C5.40907 16.8269 5.236 17 5.02273 17Z" fill="white"/>
<path d="M7.34097 16.2273C7.12769 16.2273 6.95459 16.0542 6.95459 15.8409V1.15908C6.95459 0.945808 7.12769 0.772705 7.34097 0.772705C7.55424 0.772705 7.72731 0.945808 7.72731 1.15908V15.8409C7.72731 16.0542 7.55424 16.2273 7.34097 16.2273Z" fill="white"/>
<path d="M9.65908 13.1364C9.44581 13.1364 9.27271 12.9633 9.27271 12.75V4.24999C9.27271 4.03672 9.44581 3.86362 9.65908 3.86362C9.87235 3.86362 10.0455 4.03672 10.0455 4.24999V12.75C10.0454 12.9633 9.87235 13.1364 9.65908 13.1364Z" fill="white"/>
<path d="M11.9773 16.2273C11.764 16.2273 11.5909 16.0542 11.5909 15.8409V1.15908C11.5909 0.945808 11.764 0.772705 11.9773 0.772705C12.1906 0.772705 12.3637 0.945808 12.3637 1.15908V15.8409C12.3637 16.0542 12.1906 16.2273 11.9773 16.2273Z" fill="white"/>
<path d="M14.2954 13.1364C14.0822 13.1364 13.9091 12.9633 13.9091 12.75V4.24999C13.9091 4.03672 14.0822 3.86362 14.2954 3.86362C14.5087 3.86362 14.6818 4.03672 14.6818 4.24999V12.75C14.6818 12.9633 14.5087 13.1364 14.2954 13.1364Z" fill="white"/>
<path d="M16.6137 10.8182C16.4004 10.8182 16.2273 10.6451 16.2273 10.4318V6.56817C16.2273 6.3549 16.4004 6.18179 16.6137 6.18179C16.8269 6.18179 17 6.3549 17 6.56817V10.4318C17 10.6451 16.8269 10.8182 16.6137 10.8182Z" fill="white"/>
</g>
<defs>
<clipPath id="clip0">
<rect width="17" height="17" fill="white"/>
</clipPath>
</defs>
</svg>
