<svg width="19" height="18" viewBox="0 0 19 18" fill="none" xmlns="http://www.w3.org/2000/svg">
<path d="M6.12504 14.5074C5.96703 14.3494 5.91045 14.1143 5.9817 13.9006L7.22565 10.1687C7.29396 9.96376 7.46915 9.81204 7.68207 9.77264L12.4118 9.05888L7.68207 8.34428C7.46874 8.3053 7.29438 8.15274 7.22565 7.94821L5.9817 4.2172C5.90751 3.99297 5.9729 3.74569 6.14893 3.5881C6.32454 3.43009 6.57811 3.39195 6.79228 3.49129L17.6894 8.52073C17.8981 8.61796 18.0339 8.82669 18.0339 9.05888C18.0343 9.28982 17.8994 9.50021 17.6894 9.59703L6.79228 14.6265C6.57769 14.7254 6.32454 14.6877 6.14893 14.5297C6.14096 14.5225 6.13258 14.515 6.12504 14.5074Z" fill="#A1A1C8"/>
</svg>